<svg width="153" height="116" viewBox="0 0 153 116" fill="none" xmlns="http://www.w3.org/2000/svg">
<path d="M105.47 27.8498H100.386L87.2636 8.04293C86.8954 7.48679 85.972 7.48679 85.6038 8.04293L81.0996 14.8414L71.5439 0.417105C71.175 -0.139035 70.2524 -0.139035 69.8834 0.417105L51.7099 27.8498H46.6259C46.0758 27.8498 45.6304 28.2948 45.6304 28.8445C45.6304 29.3941 46.0758 29.8392 46.6259 29.8392H105.47C106.02 29.8392 106.466 29.3941 106.466 28.8445C106.466 28.2948 106.02 27.8498 105.47 27.8498ZM70.7144 2.76862L76.381 11.3221L74.1314 14.8198L71.5439 10.7955C71.3606 10.5106 71.0451 10.3382 70.7065 10.3382C70.3679 10.3382 70.0524 10.5106 69.869 10.7948L67.2816 14.819L65.0399 11.3329L70.7144 2.76862ZM54.0974 27.8498L63.8386 13.1463L66.4434 17.1973C66.6267 17.4829 66.9422 17.6546 67.2808 17.6546C67.6194 17.6546 67.9349 17.4829 68.1183 17.1973L70.7057 13.173L73.2932 17.1973C73.4766 17.4829 73.7921 17.6546 74.1307 17.6546C74.4693 17.6546 74.7847 17.4829 74.9681 17.1973L77.5808 13.1355L83.6546 22.3475C83.9578 22.8063 84.5765 22.9311 85.0335 22.6281C85.0371 22.6259 85.0386 22.6216 85.0422 22.6194C85.0458 22.6173 85.0501 22.6173 85.0537 22.6144C85.5129 22.3114 85.6385 21.6947 85.3346 21.2367L82.2923 16.644L86.4326 10.3952L97.9982 27.8498H54.0974Z" fill="white"/>
<path d="M19.4528 82.798V83.3781C19.5254 84.1032 19.5979 84.8283 19.5979 85.6259V86.2785H19.5254V86.496C19.5254 87.4387 19.5254 88.3813 19.3802 89.324C19.0899 92.2244 17.4933 99.1853 9.72803 99.1853C1.45472 99.1853 0.220983 90.7742 0.0758373 88.3813C0.00326436 87.7287 0.00326443 87.0761 0.00326443 86.4235V84.6833V80.6952H6.53483V86.5686C6.53483 87.3662 6.53483 88.1638 6.67997 88.9614C6.75255 89.469 6.89769 89.9765 7.04284 90.4841C7.11541 90.7016 7.26056 90.9192 7.33313 91.2092C7.84114 92.1519 8.63944 92.6594 9.65546 92.7319C10.0183 92.8044 10.3812 92.7319 10.7441 92.6594C11.3972 92.5144 11.9052 92.0793 12.3407 91.4993C12.5584 91.2092 12.7035 90.8467 12.8487 90.4841C13.0664 89.904 13.139 89.324 13.2115 88.7439C13.2841 88.0188 13.3567 87.2211 13.3567 86.496V83.8857C13.0664 80.6952 11.9778 78.0124 9.2926 74.2418C6.24454 69.9637 4.28507 66.4832 2.90618 63.7278C-0.214455 58.1445 0.00326443 53.2864 0.00326443 53.2864V51.1836L0.14841 49.8784C0.293556 48.2106 1.5273 40.017 10.0183 40.017C17.5659 40.017 19.0899 47.1955 19.4528 50.0959C19.5254 50.966 19.5254 51.9087 19.5254 52.7788V58.7246V58.9422C19.5254 59.3772 19.5254 59.3772 19.1625 59.3772H18.7271H15.7516H13.8647H13.5018C13.4293 59.3772 13.3567 59.3047 13.3567 59.2322V58.6521V53.0688C13.3567 52.2712 13.3567 51.4736 13.2115 50.676C13.139 50.0234 13.0664 49.4433 12.8487 48.7907C12.7035 48.4282 12.5584 48.0656 12.2681 47.7031C11.8326 47.0505 11.2521 46.6154 10.5263 46.4704C10.1635 46.3979 9.72803 46.3979 9.43774 46.4704C8.56687 46.6154 7.91371 47.0505 7.47827 47.8481C7.18798 48.3557 6.97026 48.9357 6.82512 49.5883C6.67997 50.3134 6.6074 50.966 6.53483 51.7636V52.7788V53.4314C6.67997 57.1294 7.76857 60.0298 10.8166 64.2354L11.0343 64.5254C12.2681 66.1932 18.2191 74.6044 19.3077 81.6379L19.4528 82.798ZM45.443 78.7375V82.798V85.4809V87.8737V99.1853H38.8388V71.5589H38.0405H37.8954H34.557V75.1845V78.7375V82.798V85.4809V87.8737V99.1853H27.9529V69.6012V40.017H34.4845V64.9605H34.9199H37.46H37.8954H38.8388V40.017H45.3704V57.4919V64.9605V77.7223H45.443V78.7375ZM61.0552 92.5869H64.829V99.1853H53.7979V69.6012V40.017H64.5387H64.829V46.6154H62.4341H60.9101C60.4021 46.6154 60.4021 46.6154 60.4021 47.268V55.1716V60.9724L60.3295 64.9605H60.7649H63.305H63.7404H64.829V71.5589H63.8856H63.7404H60.4021V75.1845V82.798V85.4809V91.7893V92.4419C60.4021 92.5144 60.4746 92.5869 60.5472 92.5869H60.8375H61.0552ZM89.5855 87.8737L92.8512 99.1853H86.3197L80.659 79.4626V79.5351L79.7155 76.4896V78.7375V82.798V85.4809V87.8737V99.1853H73.184V69.6012V54.084V45.6003V40.017H83.9248C83.9248 40.017 92.6335 39.6544 92.7787 53.7939C92.7787 53.9389 92.7787 54.1565 92.8512 54.3015V54.8816L92.7061 57.8545C92.6335 58.072 92.6335 58.3621 92.6335 58.5796C92.6335 58.5796 92.3432 61.8426 91.3998 64.1629L91.2546 64.4529C89.15 69.0211 85.6665 69.7462 84.4328 69.8912L84.7956 71.2689L86.4648 77.0697L86.9728 78.7375C87.4083 80.1151 87.7711 81.4203 88.134 82.798L88.9323 85.4809L89.5855 87.8737ZM79.7155 55.1716V60.9724V62.6402C79.7155 63.3653 79.7155 63.3653 80.2961 63.3653H82.8362C83.199 63.3653 83.5619 63.2928 83.8522 63.2203C84.4328 63.0027 84.8682 62.6402 85.2311 62.1326C85.4488 61.7701 85.6665 61.335 85.7391 60.8999H85.8117C85.8117 60.6824 85.8842 60.5374 85.8842 60.3198C86.0294 59.8123 86.102 59.2322 86.1745 58.6521C86.2471 57.782 86.2471 56.9119 86.2471 56.0417V53.7939C86.2471 52.9238 86.2471 52.0537 86.1745 51.111C86.102 50.3859 85.9568 49.7334 85.7391 49.0082C85.6665 48.5732 85.4488 48.2106 85.2311 47.8481C84.8682 47.268 84.4328 46.978 83.8522 46.7604C83.5619 46.6154 83.199 46.6154 82.8362 46.6154H80.2961C79.7155 46.6154 79.7155 46.6154 79.7155 47.268V49.5883V54.8091V54.9541V55.1716ZM119.277 64.4529C116.737 70.1087 111.947 69.8912 111.947 69.8912H107.738V71.5589V74.0243V75.1845V75.4745V78.7375V82.798V85.4809V87.8737V99.1853H101.206V69.6012V54.084V45.6003V40.017H111.947C111.947 40.017 120.583 39.6544 120.801 53.7939V54.3015V54.8816C120.801 55.8967 120.801 56.8394 120.728 57.8545C120.656 58.072 120.656 58.3621 120.656 58.5796C120.656 58.5796 120.365 61.8426 119.349 64.1629C119.349 64.3079 119.277 64.3804 119.277 64.4529ZM114.269 53.7939C114.269 52.9238 114.269 52.0537 114.197 51.111C114.124 50.3859 113.979 49.7334 113.761 49.0082C113.689 48.5732 113.471 48.2106 113.253 47.8481C112.89 47.268 112.455 46.978 111.874 46.7604C111.512 46.6154 111.221 46.6154 110.858 46.6154H108.318C107.738 46.6154 107.738 46.6154 107.738 47.268V49.5883V54.8091V54.9541V55.1716V60.9724V62.6402C107.738 63.3653 107.738 63.3653 108.318 63.3653H110.858C111.221 63.3653 111.512 63.2928 111.874 63.2203C112.455 63.0027 112.89 62.6402 113.253 62.1326C113.471 61.7701 113.689 61.335 113.761 60.8999H113.834C113.834 60.6824 113.906 60.5374 113.906 60.3198C114.052 59.8123 114.124 59.2322 114.197 58.6521C114.269 57.782 114.269 56.9119 114.269 56.0417V53.7939ZM152.089 98.7503V98.9678C152.089 99.0403 152.016 99.1128 151.944 99.1853H151.653H145.92H145.63C145.63 99.1128 145.557 99.1128 145.485 99.0403C145.485 98.8953 145.485 98.8228 145.412 98.6778C145.34 97.6626 145.267 96.6475 145.122 95.6323L144.832 92.5144L144.541 89.3965L144.396 87.8012C144.396 87.6562 144.324 87.5837 144.106 87.5837H143.67C141.421 87.5112 139.243 87.5112 137.066 87.5837H136.558C136.413 87.5837 136.341 87.6562 136.268 87.8012C136.268 88.2363 136.195 88.5988 136.195 88.9614C136.05 90.1941 135.905 91.4267 135.833 92.6594L135.542 95.7774L135.252 98.4602V98.6053C135.179 99.1853 135.179 99.1853 134.671 99.1853H129.591C129.446 99.1853 129.301 99.1854 129.156 99.1128L129.301 98.0977C129.301 97.8802 129.301 97.6626 129.374 97.4451C129.446 96.5025 129.519 95.4873 129.664 94.5447L129.954 91.6443L130.244 88.6714L130.535 85.8435C130.607 85.3359 130.68 84.8283 130.68 84.3932C130.898 82.798 131.043 81.2753 131.188 79.6801L131.623 75.547L131.914 72.6466C132.059 71.704 132.131 70.7613 132.204 69.7462L132.567 66.8458C132.567 66.3382 132.639 65.9031 132.712 65.3956L133.147 60.6824L133.583 56.5493L133.873 53.7214C134.018 52.7063 134.091 51.7636 134.163 50.821L134.526 47.8481L134.671 46.3254C134.744 45.2377 134.889 44.1501 135.034 43.0624C135.107 42.0473 135.179 41.1046 135.325 40.162V40.017H145.993C145.993 40.5245 146.065 40.9596 146.138 41.3947C146.21 42.3373 146.283 43.2074 146.428 44.1501L146.718 47.3405C146.864 48.3557 146.936 49.2983 147.009 50.2409L147.372 53.2138C147.372 53.7214 147.444 54.1565 147.517 54.664L147.952 59.3772L148.388 63.4378C148.46 64.4529 148.605 65.4681 148.751 66.4107C148.823 67.4259 148.896 68.3685 149.041 69.3836L149.331 72.284L149.621 75.1845L149.912 78.1574C149.984 78.5924 150.057 79.1 150.057 79.5351C150.275 81.1303 150.42 82.653 150.565 84.2482L151 88.3813L151.291 91.2817C151.436 92.2244 151.508 93.167 151.581 94.1821L151.944 97.0825C151.944 97.6626 152.016 98.2427 152.089 98.7503ZM143.308 80.9853H143.67L142.582 69.2386L142.364 67.6434C142.364 66.9908 142.292 66.3382 142.219 65.6856C142.146 65.1055 142.074 64.4529 142.074 63.8729L141.711 60.6824C141.638 59.6673 141.566 58.5796 141.421 57.4919C141.421 56.9844 141.348 56.4768 141.276 55.9692C141.203 55.3892 141.13 54.7366 141.13 54.1565C140.985 53.0688 140.913 52.0537 140.84 50.966L140.477 47.3405C140.477 47.123 140.405 46.9055 140.332 46.6879C140.332 46.6154 140.332 46.6154 140.259 46.6154V46.6879L139.969 49.0808C139.897 50.0959 139.824 51.1836 139.679 52.1987C139.606 53.2864 139.534 54.3015 139.389 55.3892L139.098 58.5796L138.953 60.0298L138.663 63.2203C138.518 64.3079 138.445 65.3231 138.373 66.4107L138.227 67.8609C138.082 68.8761 138.01 69.9637 137.937 70.9789L137.574 74.1693C137.502 75.257 137.429 76.2721 137.284 77.3598C137.284 77.6498 137.211 77.9398 137.211 78.3024L136.921 80.9853H142.001H143.308Z" fill="white"/>
<path d="M17.5317 111.463C17.5317 113.066 16.0268 113.741 14.0353 113.444V114.74C14.0353 115.37 14.4679 115.478 15.0446 115.551C15.1077 115.56 15.0626 115.857 14.9905 115.857H12.2601C12.188 115.857 12.134 115.56 12.206 115.551C12.6656 115.488 12.954 115.307 12.954 114.74V110.725C12.954 110.13 12.6386 109.959 12.206 109.842C12.134 109.824 12.179 109.527 12.2601 109.536C12.6115 109.581 13.008 109.59 13.2964 109.59C13.9632 109.59 14.5219 109.536 14.9815 109.536C16.3783 109.536 17.5317 110.049 17.5317 111.463ZM14.7562 110.004C14.1885 110.004 14.0353 110.202 14.0353 110.725V113.003C15.5672 113.219 16.3692 112.849 16.3692 111.67C16.3692 110.599 15.6844 110.004 14.7562 110.004ZM24.966 115.632C25.0381 115.632 25.02 115.875 24.966 115.893C24.3983 116.082 23.6143 116.055 23.0736 115.361L21.6859 113.579C21.2984 113.075 20.8388 113.003 20.208 112.994V114.74C20.208 115.37 20.6406 115.478 21.2173 115.551C21.2804 115.56 21.2353 115.857 21.1632 115.857H18.4328C18.3607 115.857 18.3067 115.56 18.3788 115.551C18.8383 115.488 19.1267 115.307 19.1267 114.74V110.725C19.1267 110.13 18.8113 109.959 18.3788 109.842C18.3067 109.824 18.3517 109.527 18.4328 109.536C18.7843 109.581 19.1808 109.59 19.4691 109.59C20.1359 109.59 20.7577 109.536 21.1903 109.536C22.551 109.536 23.4611 110.094 23.4611 111.202C23.4611 112.246 22.614 112.759 21.8571 112.804V112.849C22.2175 112.849 22.4789 113.003 22.8754 113.498L24.218 115.181C24.4974 115.533 24.7677 115.632 24.966 115.632ZM20.4694 112.579C21.812 112.579 22.3257 112.345 22.3257 111.445C22.3257 110.482 21.7129 110.004 20.9109 110.004C20.3793 110.004 20.208 110.22 20.208 110.725V112.579H20.4694ZM28.8949 116.001C27.0205 116.001 25.6418 114.614 25.6418 112.741C25.6418 110.923 26.9394 109.41 28.9129 109.41C30.7963 109.41 32.166 110.788 32.166 112.66C32.166 114.488 30.8774 116.001 28.8949 116.001ZM29.2463 115.388C30.0393 115.388 31.0936 114.866 31.0936 113.165C31.0936 111.346 29.8591 110.022 28.5615 110.022C27.7685 110.022 26.7232 110.545 26.7232 112.237C26.7232 114.074 27.9577 115.388 29.2463 115.388ZM38.3837 111.463C38.3837 113.066 36.8789 113.741 34.8874 113.444V114.74C34.8874 115.37 35.3199 115.478 35.8966 115.551C35.9597 115.56 35.9147 115.857 35.8426 115.857H33.1122C33.0401 115.857 32.986 115.56 33.0581 115.551C33.5177 115.488 33.806 115.307 33.806 114.74V110.725C33.806 110.13 33.4906 109.959 33.0581 109.842C32.986 109.824 33.0311 109.527 33.1122 109.536C33.4636 109.581 33.8601 109.59 34.1485 109.59C34.8153 109.59 35.374 109.536 35.8336 109.536C37.2303 109.536 38.3837 110.049 38.3837 111.463ZM35.6083 110.004C35.0406 110.004 34.8874 110.202 34.8874 110.725V113.003C36.4193 113.219 37.2213 112.849 37.2213 111.67C37.2213 110.599 36.5364 110.004 35.6083 110.004ZM39.1497 115.875C39.0596 115.884 39.0235 115.569 39.0956 115.551C39.6183 115.415 40.0238 115.334 40.0238 114.668V110.671C40.0238 110.094 39.6543 109.941 39.2668 109.842C39.1948 109.824 39.2398 109.527 39.3119 109.536C39.9697 109.608 41.1051 109.59 41.6548 109.59C42.4748 109.59 43.0696 109.554 43.8085 109.536C44.0248 109.536 44.0248 109.68 43.9797 109.887L43.7635 110.743C43.7364 110.869 43.5111 110.869 43.4751 110.743C43.3399 110.302 43.0696 110.049 41.9432 110.049C41.3124 110.049 41.1051 110.211 41.1051 110.68V112.147C41.1051 112.381 41.2223 112.426 41.4025 112.426H41.6008C42.3307 112.426 42.9615 112.354 43.3309 112.021C43.421 111.94 43.6193 111.958 43.5382 112.138L43.0245 113.273C42.9524 113.435 42.8173 113.417 42.7182 113.282C42.5109 112.994 42.0513 112.876 41.5287 112.876H41.4025C41.2223 112.876 41.1051 112.922 41.1051 113.156V114.668C41.1051 115.181 41.3214 115.37 42.0693 115.37C43.43 115.37 43.9707 114.749 44.187 114.407C44.2501 114.308 44.4934 114.353 44.4934 114.506C44.4934 114.965 44.1059 115.875 43.5382 115.875C43.0335 115.848 42.5379 115.821 41.781 115.821C40.9519 115.821 39.9697 115.794 39.1497 115.875ZM51.8375 115.632C51.9096 115.632 51.8916 115.875 51.8375 115.893C51.2698 116.082 50.4859 116.055 49.9452 115.361L48.5574 113.579C48.17 113.075 47.7104 113.003 47.0796 112.994V114.74C47.0796 115.37 47.5121 115.478 48.0889 115.551C48.1519 115.56 48.1069 115.857 48.0348 115.857H45.3044C45.2323 115.857 45.1782 115.56 45.2503 115.551C45.7099 115.488 45.9982 115.307 45.9982 114.74V110.725C45.9982 110.13 45.6829 109.959 45.2503 109.842C45.1782 109.824 45.2233 109.527 45.3044 109.536C45.6558 109.581 46.0523 109.59 46.3407 109.59C47.0075 109.59 47.6293 109.536 48.0618 109.536C49.4225 109.536 50.3327 110.094 50.3327 111.202C50.3327 112.246 49.4856 112.759 48.7287 112.804V112.849C49.0891 112.849 49.3504 113.003 49.7469 113.498L51.0896 115.181C51.369 115.533 51.6393 115.632 51.8375 115.632ZM47.3409 112.579C48.6836 112.579 49.1972 112.345 49.1972 111.445C49.1972 110.482 48.5845 110.004 47.7825 110.004C47.2508 110.004 47.0796 110.22 47.0796 110.725V112.579H47.3409ZM53.7209 115.857C53.6398 115.857 53.5857 115.569 53.6578 115.56C54.2796 115.478 54.6941 115.352 54.6941 114.866V110.428C54.6941 110.202 54.613 110.13 54.3967 110.13H54.1534C53.2974 110.13 52.8198 110.329 52.6395 110.716C52.5584 110.896 52.2521 110.869 52.2881 110.716C52.3692 110.392 52.4413 110.112 52.4954 109.635C52.5134 109.464 52.6125 109.473 52.7747 109.491C53.1892 109.536 53.5677 109.554 55.2798 109.554C56.992 109.554 57.5957 109.536 58.0283 109.491C58.1905 109.473 58.3437 109.464 58.2896 109.635C58.1544 110.058 58.0643 110.392 58.0103 110.716C57.9832 110.869 57.7399 110.878 57.7039 110.716C57.6138 110.338 57.2173 110.13 56.4423 110.13H56.1629C55.9467 110.13 55.8115 110.202 55.8115 110.428V114.866C55.8115 115.352 56.226 115.478 56.8478 115.56C56.9199 115.569 56.8658 115.857 56.7847 115.857H53.7209ZM65.048 109.554C65.1562 109.554 65.1832 109.842 65.0751 109.86C64.7236 109.914 64.4173 110.166 64.0027 110.815L62.5609 113.066V114.74C62.5609 115.37 62.9214 115.478 63.4801 115.551C63.5432 115.56 63.4981 115.857 63.426 115.857H60.6055C60.5334 115.857 60.4883 115.56 60.5514 115.551C61.1462 115.469 61.4796 115.352 61.4796 114.74V113.102L59.9657 110.824C59.5512 110.202 59.2989 109.923 58.9114 109.86C58.7942 109.842 58.8213 109.554 58.9384 109.554H61.3174C61.4345 109.554 61.4526 109.842 61.3444 109.86C60.9479 109.923 60.7947 110.229 61.1822 110.815L62.3266 112.516L63.426 110.815C63.8045 110.229 63.5792 109.932 63.1016 109.86C62.9755 109.842 63.0115 109.554 63.1196 109.554H65.048ZM75.5642 115.551C75.6363 115.56 75.5822 115.857 75.5191 115.857H73.1672C73.1041 115.857 73.059 115.56 73.1131 115.551C73.4916 115.488 73.7709 115.307 73.7439 114.74L73.5727 111.715L72.1129 114.686C71.9236 115.073 71.7794 115.469 71.7524 115.614C71.7344 115.722 71.5452 115.776 71.401 115.776C71.2658 115.776 71.1757 115.722 71.1216 115.614L69.04 111.67L68.9049 114.74C68.8778 115.37 69.2473 115.515 69.5356 115.551C69.6077 115.56 69.5537 115.857 69.4906 115.857H67.6253C67.5532 115.857 67.4991 115.56 67.5712 115.551C67.9587 115.506 68.2831 115.37 68.3191 114.74L68.6075 109.572C68.6165 109.419 68.9589 109.41 69.049 109.572L71.6623 114.452L74.0863 109.572C74.1674 109.41 74.5279 109.419 74.5369 109.572L74.8253 114.74C74.8613 115.37 75.1857 115.506 75.5642 115.551ZM82.9174 115.551C83.0435 115.569 83.0075 115.857 82.8993 115.857H80.5204C80.4032 115.857 80.3942 115.569 80.4933 115.551C80.8268 115.488 81.1872 115.37 80.8538 114.596L80.7547 114.371C80.6646 114.155 80.5114 114.137 80.241 114.137H78.4027C78.1324 114.137 77.9792 114.155 77.8891 114.371L77.799 114.596C77.4836 115.37 77.826 115.488 78.2585 115.551C78.3757 115.569 78.3487 115.857 78.2315 115.857H76.2851C76.1769 115.857 76.1499 115.569 76.258 115.551C76.6275 115.488 76.8438 115.361 77.1772 114.596L78.7001 111.103C79.0515 110.311 79.1597 109.941 79.1597 109.599C79.1597 109.545 79.7905 109.401 79.8175 109.464L82.0162 114.587C82.3406 115.352 82.5569 115.497 82.9174 115.551ZM80.1779 113.633C80.3041 113.633 80.4393 113.615 80.3852 113.489L79.3309 110.968L78.2676 113.489C78.2135 113.615 78.3487 113.633 78.4748 113.633H80.1779ZM89.5587 115.947C89.4055 115.947 89.3244 115.884 89.2252 115.776L84.9359 111.292V114.713C84.9359 115.325 85.2963 115.424 85.81 115.551C85.8821 115.569 85.846 115.857 85.7559 115.857H83.6202C83.5482 115.857 83.4941 115.578 83.5752 115.551C83.9537 115.424 84.3141 115.352 84.3141 114.713V111.22C84.3141 110.581 84.215 110.274 83.9807 109.959C83.8996 109.851 83.8185 109.779 83.8185 109.752C83.8185 109.671 83.8726 109.554 83.9987 109.554H84.6655C84.7557 109.554 84.8187 109.563 84.8818 109.635L89.0811 114.074V110.689C89.0811 110.049 88.6756 109.977 88.207 109.86C88.1349 109.842 88.1709 109.554 88.261 109.554H90.3967C90.4688 109.554 90.5139 109.842 90.4418 109.86C90.0453 109.977 89.7028 110.049 89.7028 110.689V114.191C89.7028 114.785 89.7209 115.442 89.811 115.776C89.847 115.911 89.7028 115.947 89.5587 115.947ZM97.7949 115.551C97.9211 115.569 97.8851 115.857 97.7769 115.857H95.398C95.2808 115.857 95.2718 115.569 95.3709 115.551C95.7043 115.488 96.0648 115.37 95.7314 114.596L95.6322 114.371C95.5421 114.155 95.3889 114.137 95.1186 114.137H93.2803C93.01 114.137 92.8568 114.155 92.7667 114.371L92.6766 114.596C92.3612 115.37 92.7036 115.488 93.1361 115.551C93.2533 115.569 93.2262 115.857 93.1091 115.857H91.1627C91.0545 115.857 91.0275 115.569 91.1356 115.551C91.5051 115.488 91.7214 115.361 92.0548 114.596L93.5777 111.103C93.9291 110.311 94.0373 109.941 94.0373 109.599C94.0373 109.545 94.668 109.401 94.6951 109.464L96.8938 114.587C97.2182 115.352 97.4345 115.497 97.7949 115.551ZM95.0555 113.633C95.1817 113.633 95.3168 113.615 95.2628 113.489L94.2085 110.968L93.1451 113.489C93.0911 113.615 93.2262 113.633 93.3524 113.633H95.0555ZM102.481 116.001C100.327 116.001 98.5969 114.938 98.5969 112.822C98.5969 111.103 99.7774 109.41 102.283 109.41C103.382 109.41 104.238 109.734 104.13 110.04L103.995 110.419C103.679 111.31 103.319 110.139 101.634 110.139C100.237 110.139 99.5972 110.941 99.5972 112.3C99.5972 114.326 100.976 115.424 102.219 115.424C102.868 115.424 103.112 115.109 103.112 114.596V114.434C103.112 113.75 102.805 113.525 102.084 113.417C101.967 113.399 102.075 113.075 102.274 113.075H104.589C104.842 113.075 104.752 113.39 104.653 113.417C104.319 113.507 104.094 113.696 104.094 114.272V114.587C104.094 114.803 104.112 114.992 104.283 115.271C103.742 115.569 102.697 116.001 102.481 116.001ZM105.518 115.875C105.427 115.884 105.391 115.569 105.464 115.551C105.986 115.415 106.392 115.334 106.392 114.668V110.671C106.392 110.094 106.022 109.941 105.635 109.842C105.563 109.824 105.608 109.527 105.68 109.536C106.338 109.608 107.473 109.59 108.023 109.59C108.843 109.59 109.437 109.554 110.176 109.536C110.393 109.536 110.393 109.68 110.348 109.887L110.131 110.743C110.104 110.869 109.879 110.869 109.843 110.743C109.708 110.302 109.437 110.049 108.311 110.049C107.68 110.049 107.473 110.211 107.473 110.68V112.147C107.473 112.381 107.59 112.426 107.77 112.426H107.969C108.699 112.426 109.329 112.354 109.699 112.021C109.789 111.94 109.987 111.958 109.906 112.138L109.392 113.273C109.32 113.435 109.185 113.417 109.086 113.282C108.879 112.994 108.419 112.876 107.897 112.876H107.77C107.59 112.876 107.473 112.922 107.473 113.156V114.668C107.473 115.181 107.689 115.37 108.437 115.37C109.798 115.37 110.339 114.749 110.555 114.407C110.618 114.308 110.861 114.353 110.861 114.506C110.861 114.965 110.474 115.875 109.906 115.875C109.401 115.848 108.906 115.821 108.149 115.821C107.32 115.821 106.338 115.794 105.518 115.875ZM119.611 115.551C119.683 115.56 119.629 115.857 119.566 115.857H117.214C117.151 115.857 117.106 115.56 117.16 115.551C117.539 115.488 117.818 115.307 117.791 114.74L117.62 111.715L116.16 114.686C115.971 115.073 115.826 115.469 115.799 115.614C115.781 115.722 115.592 115.776 115.448 115.776C115.313 115.776 115.223 115.722 115.169 115.614L113.087 111.67L112.952 114.74C112.925 115.37 113.294 115.515 113.583 115.551C113.655 115.56 113.601 115.857 113.538 115.857H111.672C111.6 115.857 111.546 115.56 111.618 115.551C112.006 115.506 112.33 115.37 112.366 114.74L112.655 109.572C112.664 109.419 113.006 109.41 113.096 109.572L115.709 114.452L118.133 109.572C118.214 109.41 118.575 109.419 118.584 109.572L118.872 114.74C118.908 115.37 119.233 115.506 119.611 115.551ZM120.323 115.875C120.233 115.884 120.197 115.569 120.269 115.551C120.792 115.415 121.197 115.334 121.197 114.668V110.671C121.197 110.094 120.828 109.941 120.44 109.842C120.368 109.824 120.413 109.527 120.485 109.536C121.143 109.608 122.279 109.59 122.828 109.59C123.648 109.59 124.243 109.554 124.982 109.536C125.198 109.536 125.198 109.68 125.153 109.887L124.937 110.743C124.91 110.869 124.685 110.869 124.648 110.743C124.513 110.302 124.243 110.049 123.117 110.049C122.486 110.049 122.279 110.211 122.279 110.68V112.147C122.279 112.381 122.396 112.426 122.576 112.426H122.774C123.504 112.426 124.135 112.354 124.504 112.021C124.594 111.94 124.793 111.958 124.712 112.138L124.198 113.273C124.126 113.435 123.991 113.417 123.892 113.282C123.684 112.994 123.225 112.876 122.702 112.876H122.576C122.396 112.876 122.279 112.922 122.279 113.156V114.668C122.279 115.181 122.495 115.37 123.243 115.37C124.603 115.37 125.144 114.749 125.36 114.407C125.423 114.308 125.667 114.353 125.667 114.506C125.667 114.965 125.279 115.875 124.712 115.875C124.207 115.848 123.711 115.821 122.954 115.821C122.125 115.821 121.143 115.794 120.323 115.875ZM132.362 115.947C132.209 115.947 132.128 115.884 132.029 115.776L127.739 111.292V114.713C127.739 115.325 128.1 115.424 128.613 115.551C128.686 115.569 128.649 115.857 128.559 115.857H126.424C126.352 115.857 126.298 115.578 126.379 115.551C126.757 115.424 127.118 115.352 127.118 114.713V111.22C127.118 110.581 127.018 110.274 126.784 109.959C126.703 109.851 126.622 109.779 126.622 109.752C126.622 109.671 126.676 109.554 126.802 109.554H127.469C127.559 109.554 127.622 109.563 127.685 109.635L131.885 114.074V110.689C131.885 110.049 131.479 109.977 131.01 109.86C130.938 109.842 130.974 109.554 131.064 109.554H133.2C133.272 109.554 133.317 109.842 133.245 109.86C132.849 109.977 132.506 110.049 132.506 110.689V114.191C132.506 114.785 132.524 115.442 132.614 115.776C132.65 115.911 132.506 115.947 132.362 115.947ZM135.345 115.857C135.264 115.857 135.21 115.569 135.282 115.56C135.904 115.478 136.318 115.352 136.318 114.866V110.428C136.318 110.202 136.237 110.13 136.021 110.13H135.777C134.921 110.13 134.444 110.329 134.263 110.716C134.182 110.896 133.876 110.869 133.912 110.716C133.993 110.392 134.065 110.112 134.119 109.635C134.137 109.464 134.236 109.473 134.399 109.491C134.813 109.536 135.192 109.554 136.904 109.554C138.616 109.554 139.22 109.536 139.652 109.491C139.814 109.473 139.968 109.464 139.914 109.635C139.778 110.058 139.688 110.392 139.634 110.716C139.607 110.869 139.364 110.878 139.328 110.716C139.238 110.338 138.841 110.13 138.066 110.13H137.787C137.571 110.13 137.435 110.202 137.435 110.428V114.866C137.435 115.352 137.85 115.478 138.472 115.56C138.544 115.569 138.49 115.857 138.409 115.857H135.345Z" fill="white"/>
</svg>
