<svg width="87" height="67" viewBox="0 0 87 67" fill="none" xmlns="http://www.w3.org/2000/svg">
<path d="M60.3321 15.931H57.4235L49.9172 4.60083C49.7066 4.2827 49.1784 4.2827 48.9677 4.60083L46.3912 8.48979L40.925 0.238598C40.714 -0.0795328 40.1862 -0.0795328 39.9751 0.238598L29.5793 15.931H26.6711C26.3564 15.931 26.1016 16.1856 26.1016 16.5C26.1016 16.8144 26.3564 17.069 26.6711 17.069H60.3321C60.6468 17.069 60.9016 16.8144 60.9016 16.5C60.9016 16.1856 60.6463 15.931 60.3321 15.931ZM40.4505 1.58375L43.6919 6.47661L42.4051 8.47741L40.925 6.1754C40.8201 6.01241 40.6396 5.91379 40.4459 5.91379C40.2523 5.91379 40.0718 6.01241 39.9669 6.17498L38.4868 8.477L37.2045 6.4828L40.4505 1.58375ZM30.945 15.931L36.5173 7.52013L38.0073 9.83741C38.1122 10.0008 38.2927 10.099 38.4864 10.099C38.68 10.099 38.8605 10.0008 38.9654 9.83741L40.4455 7.5354L41.9256 9.83741C42.0305 10.0008 42.211 10.099 42.4047 10.099C42.5984 10.099 42.7789 10.0008 42.8837 9.83741L44.3783 7.51394L47.8527 12.7835C48.0262 13.046 48.3801 13.1173 48.6415 12.944C48.6436 12.9428 48.6444 12.9403 48.6464 12.9391C48.6485 12.9378 48.651 12.9378 48.6531 12.9362C48.9157 12.7629 48.9876 12.4101 48.8137 12.1481L47.0734 9.52093L49.4418 5.94639L56.0577 15.931H30.945Z" fill="#030303"/>
<path d="M11.1277 47.3633V47.6952C11.1692 48.1099 11.2107 48.5247 11.2107 48.981V49.3543H11.1692V49.4787C11.1692 50.0179 11.1692 50.5572 11.0862 51.0964C10.9201 52.7555 10.0068 56.7374 5.56477 56.7374C0.832151 56.7374 0.12641 51.9259 0.0433815 50.5572C0.00186733 50.1839 0.00186736 49.8106 0.00186736 49.4372V48.4418V46.1605H3.73814V49.5202C3.73814 49.9765 3.73814 50.4327 3.82117 50.889C3.86269 51.1793 3.94571 51.4697 4.02874 51.76C4.07026 51.8845 4.15328 52.0089 4.1948 52.1748C4.4854 52.714 4.94205 53.0044 5.52325 53.0459C5.73082 53.0873 5.93839 53.0459 6.14596 53.0044C6.51959 52.9214 6.81019 52.6726 7.05928 52.3407C7.18382 52.1748 7.26685 51.9674 7.34987 51.76C7.47442 51.4282 7.51593 51.0964 7.55745 50.7646C7.59896 50.3498 7.64047 49.8935 7.64047 49.4787V47.9855C7.47442 46.1605 6.85171 44.6258 5.31568 42.4689C3.57209 40.0217 2.4512 38.0307 1.66243 36.4545C-0.122675 33.2607 0.00186736 30.4817 0.00186736 30.4817V29.2788L0.0848957 28.5322C0.167924 27.5782 0.873665 22.8911 5.73082 22.8911C10.0483 22.8911 10.9201 26.9975 11.1277 28.6566C11.1692 29.1543 11.1692 29.6936 11.1692 30.1913V33.5925V33.717C11.1692 33.9658 11.1692 33.9658 10.9616 33.9658H10.7125H9.01044H7.93107H7.7235C7.68199 33.9658 7.64047 33.9244 7.64047 33.8829V33.551V30.3572C7.64047 29.901 7.64047 29.4447 7.55745 28.9884C7.51593 28.6151 7.47442 28.2833 7.34987 27.91C7.26685 27.7026 7.18382 27.4952 7.01776 27.2878C6.76868 26.9145 6.43656 26.6656 6.02142 26.5827C5.81385 26.5412 5.56477 26.5412 5.39871 26.5827C4.90054 26.6656 4.52691 26.9145 4.27783 27.3708C4.11177 27.6611 3.98723 27.993 3.9042 28.3663C3.82117 28.781 3.77966 29.1543 3.73814 29.6106V30.1913V30.5646C3.82117 32.68 4.44388 34.3391 6.18748 36.7449L6.31202 36.9108C7.01776 37.8648 10.4219 42.6763 11.0446 46.6997L11.1277 47.3633ZM25.9949 45.0405V47.3633V48.898V50.2668V56.7374H22.2171V40.9342H21.7605H21.6775H19.7678V43.0081V45.0405V47.3633V48.898V50.2668V56.7374H15.99V39.8143V22.8911H19.7263V37.1597H19.9754H21.4284H21.6775H22.2171V22.8911H25.9534V32.8874V37.1597V44.4598H25.9949V45.0405ZM34.9257 52.9629H37.0844V56.7374H30.7742V39.8143V22.8911H36.9183H37.0844V26.6656H35.7144H34.8426C34.552 26.6656 34.552 26.6656 34.552 27.039V31.5601V34.8784L34.5105 37.1597H34.7596H36.2126H36.4617H37.0844V40.9342H36.5447H36.4617H34.552V43.0081V47.3633V48.898V52.5066V52.8799C34.552 52.9214 34.5935 52.9629 34.6351 52.9629H34.8011H34.9257ZM51.2459 50.2668L53.1141 56.7374H49.3778L46.1397 45.4553V45.4968L45.6 43.7547V45.0405V47.3633V48.898V50.2668V56.7374H41.8637V39.8143V30.9379V26.0849V22.8911H48.0078C48.0078 22.8911 52.9895 22.6837 53.0725 30.772C53.0725 30.855 53.0725 30.9794 53.1141 31.0623V31.3942L53.031 33.0948C52.9895 33.2192 52.9895 33.3851 52.9895 33.5096C52.9895 33.5096 52.8235 35.3761 52.2838 36.7034L52.2007 36.8693C50.9968 39.4824 49.0042 39.8972 48.2984 39.9802L48.506 40.7683L49.4608 44.0865L49.7514 45.0405C50.0005 45.8286 50.2081 46.5752 50.4156 47.3633L50.8723 48.898L51.2459 50.2668ZM45.6 31.5601V34.8784V35.8324C45.6 36.2471 45.6 36.2471 45.9321 36.2471H47.3851C47.5927 36.2471 47.8002 36.2057 47.9663 36.1642C48.2984 36.0397 48.5475 35.8324 48.7551 35.542C48.8796 35.3346 49.0042 35.0857 49.0457 34.8369H49.0872C49.0872 34.7124 49.1287 34.6295 49.1287 34.505C49.2117 34.2147 49.2532 33.8829 49.2948 33.551C49.3363 33.0533 49.3363 32.5556 49.3363 32.0578V30.772C49.3363 30.2743 49.3363 29.7765 49.2948 29.2373C49.2532 28.8225 49.1702 28.4492 49.0457 28.0344C49.0042 27.7856 48.8796 27.5782 48.7551 27.3708C48.5475 27.039 48.2984 26.873 47.9663 26.7486C47.8002 26.6656 47.5927 26.6656 47.3851 26.6656H45.9321C45.6 26.6656 45.6 26.6656 45.6 27.039V28.3663V31.3527V31.4357V31.5601ZM68.2304 36.8693C66.7774 40.1046 64.0375 39.9802 64.0375 39.9802H61.6296V40.9342V42.3445V43.0081V43.174V45.0405V47.3633V48.898V50.2668V56.7374H57.8934V39.8143V30.9379V26.0849V22.8911H64.0375C64.0375 22.8911 68.9777 22.6837 69.1022 30.772V31.0623V31.3942C69.1022 31.9749 69.1022 32.5141 69.0607 33.0948C69.0192 33.2192 69.0192 33.3851 69.0192 33.5096C69.0192 33.5096 68.8531 35.3761 68.2719 36.7034C68.2719 36.7864 68.2304 36.8278 68.2304 36.8693ZM65.3659 30.772C65.3659 30.2743 65.3659 29.7765 65.3244 29.2373C65.2829 28.8225 65.1999 28.4492 65.0753 28.0344C65.0338 27.7856 64.9093 27.5782 64.7847 27.3708C64.5772 27.039 64.3281 26.873 63.996 26.7486C63.7884 26.6656 63.6223 26.6656 63.4148 26.6656H61.9618C61.6296 26.6656 61.6296 26.6656 61.6296 27.039V28.3663V31.3527V31.4357V31.5601V34.8784V35.8324C61.6296 36.2471 61.6296 36.2471 61.9618 36.2471H63.4148C63.6223 36.2471 63.7884 36.2057 63.996 36.1642C64.3281 36.0397 64.5772 35.8324 64.7847 35.542C64.9093 35.3346 65.0338 35.0857 65.0753 34.8369H65.1168C65.1168 34.7124 65.1583 34.6295 65.1583 34.505C65.2414 34.2147 65.2829 33.8829 65.3244 33.551C65.3659 33.0533 65.3659 32.5556 65.3659 32.0578V30.772ZM87 56.4886V56.613C87 56.6545 86.9585 56.696 86.917 56.7374H86.7509H83.4713H83.3052C83.3052 56.696 83.2637 56.696 83.2222 56.6545C83.2222 56.5715 83.2222 56.53 83.1807 56.4471C83.1392 55.8664 83.0977 55.2857 83.0146 54.705L82.8486 52.9214L82.6825 51.1379L82.5995 50.2253C82.5995 50.1424 82.558 50.1009 82.4334 50.1009H82.1844C80.8974 50.0594 79.652 50.0594 78.4066 50.1009H78.116C78.0329 50.1009 77.9914 50.1424 77.9499 50.2253C77.9499 50.4742 77.9084 50.6816 77.9084 50.889C77.8254 51.5941 77.7423 52.2992 77.7008 53.0044L77.5348 54.788L77.3687 56.3227V56.4056C77.3272 56.7374 77.3272 56.7374 77.0366 56.7374H74.1306C74.0476 56.7374 73.9646 56.7374 73.8815 56.696L73.9645 56.1153C73.9645 55.9908 73.9645 55.8664 74.0061 55.742C74.0476 55.2027 74.0891 54.622 74.1721 54.0828L74.3382 52.4237L74.5042 50.7231L74.6703 49.1054C74.7118 48.8151 74.7533 48.5247 74.7533 48.2759C74.8779 47.3633 74.9609 46.4923 75.0439 45.5798L75.293 43.2155L75.4591 41.5564C75.5421 41.0171 75.5836 40.4779 75.6251 39.8972L75.8327 38.2381C75.8327 37.9478 75.8742 37.6989 75.9157 37.4085L76.1648 34.7124L76.4139 32.3482L76.5799 30.7305C76.663 30.1498 76.7045 29.6106 76.746 29.0714L76.9536 27.3708L77.0366 26.4997C77.0781 25.8776 77.1611 25.2554 77.2442 24.6332C77.2857 24.0525 77.3272 23.5133 77.4102 22.9741V22.8911H83.5128C83.5128 23.1815 83.5543 23.4303 83.5958 23.6792C83.6374 24.2184 83.6789 24.7162 83.7619 25.2554L83.928 27.0804C84.011 27.6611 84.0525 28.2003 84.094 28.7396L84.3016 30.4402C84.3016 30.7305 84.3431 30.9794 84.3846 31.2697L84.6337 33.9658L84.8828 36.2886C84.9243 36.8693 85.0073 37.45 85.0903 37.9892C85.1319 38.5699 85.1734 39.1091 85.2564 39.6898L85.4225 41.349L85.5885 43.0081L85.7546 44.7087C85.7961 44.9576 85.8376 45.2479 85.8376 45.4968C85.9621 46.4093 86.0452 47.2804 86.1282 48.1929L86.3773 50.5572L86.5433 52.2163C86.6264 52.7555 86.6679 53.2947 86.7094 53.8754L86.917 55.5346C86.917 55.8664 86.9585 56.1982 87 56.4886ZM81.9768 46.3264H82.1844L81.5616 39.6069L81.4371 38.6944C81.4371 38.3211 81.3956 37.9478 81.3541 37.5744C81.3126 37.2426 81.271 36.8693 81.271 36.5375L81.0635 34.7124C81.022 34.1317 80.9804 33.5096 80.8974 32.8874C80.8974 32.597 80.8559 32.3067 80.8144 32.0163C80.7729 31.6845 80.7314 31.3112 80.7314 30.9794C80.6483 30.3572 80.6068 29.7765 80.5653 29.1543L80.3577 27.0804C80.3577 26.956 80.3162 26.8316 80.2747 26.7071C80.2747 26.6656 80.2747 26.6656 80.2332 26.6656V26.7071L80.0671 28.0759C80.0256 28.6566 79.9841 29.2788 79.9011 29.8595C79.8596 30.4817 79.818 31.0623 79.735 31.6845L79.569 33.5096L79.4859 34.3391L79.3199 36.1642C79.2368 36.7864 79.1953 37.3671 79.1538 37.9892L79.0708 38.8188C78.9878 39.3995 78.9463 40.0217 78.9047 40.6024L78.6972 42.4274C78.6557 43.0496 78.6141 43.6303 78.5311 44.2525C78.5311 44.4184 78.4896 44.5843 78.4896 44.7917L78.3235 46.3264H81.2295H81.9768Z" fill="#030303"/>
<path d="M10.0281 63.7602C10.0281 64.677 9.16721 65.0632 8.02801 64.8933V65.6349C8.02801 65.9954 8.27544 66.0572 8.60534 66.0984C8.64143 66.1036 8.61565 66.2735 8.57442 66.2735H7.01253C6.97129 66.2735 6.94036 66.1036 6.9816 66.0984C7.24449 66.0624 7.40944 65.9594 7.40944 65.6349V63.3379C7.40944 62.998 7.22903 62.9001 6.9816 62.8332C6.94036 62.8229 6.96614 62.6529 7.01253 62.658C7.21356 62.6838 7.44037 62.6889 7.60532 62.6889C7.98677 62.6889 8.30637 62.658 8.56926 62.658C9.36825 62.658 10.0281 62.9516 10.0281 63.7602ZM8.44039 62.9259C8.11564 62.9259 8.02801 63.0392 8.02801 63.3379V64.6409C8.90432 64.7645 9.36309 64.5533 9.36309 63.8787C9.36309 63.2658 8.97133 62.9259 8.44039 62.9259ZM14.2807 66.1448C14.322 66.1448 14.3116 66.2838 14.2807 66.2941C13.956 66.4023 13.5075 66.3869 13.1982 65.9903L12.4044 64.9705C12.1827 64.6821 11.9198 64.6409 11.559 64.6358V65.6349C11.559 65.9954 11.8064 66.0572 12.1363 66.0984C12.1724 66.1036 12.1467 66.2735 12.1054 66.2735H10.5435C10.5023 66.2735 10.4714 66.1036 10.5126 66.0984C10.7755 66.0624 10.9404 65.9594 10.9404 65.6349V63.3379C10.9404 62.998 10.76 62.9001 10.5126 62.8332C10.4714 62.8229 10.4971 62.6529 10.5435 62.658C10.7446 62.6838 10.9714 62.6889 11.1363 62.6889C11.5178 62.6889 11.8735 62.658 12.1209 62.658C12.8992 62.658 13.4199 62.9774 13.4199 63.6108C13.4199 64.2083 12.9353 64.5018 12.5023 64.5276V64.5533C12.7085 64.5533 12.858 64.6409 13.0848 64.9242L13.8529 65.8873C14.0127 66.0881 14.1673 66.1448 14.2807 66.1448ZM11.7085 64.3988C12.4766 64.3988 12.7704 64.2649 12.7704 63.7499C12.7704 63.1988 12.4199 62.9259 11.9611 62.9259C11.657 62.9259 11.559 63.0495 11.559 63.3379V64.3988H11.7085ZM16.5282 66.356C15.456 66.356 14.6673 65.5628 14.6673 64.4915C14.6673 63.4512 15.4096 62.5859 16.5385 62.5859C17.6158 62.5859 18.3994 63.3739 18.3994 64.4452C18.3994 65.4907 17.6622 66.356 16.5282 66.356ZM16.7292 66.0057C17.1828 66.0057 17.7859 65.707 17.7859 64.7336C17.7859 63.6933 17.0797 62.9362 16.3375 62.9362C15.8838 62.9362 15.2859 63.2349 15.2859 64.2031C15.2859 65.2538 15.9921 66.0057 16.7292 66.0057ZM21.9561 63.7602C21.9561 64.677 21.0953 65.0632 19.9561 64.8933V65.6349C19.9561 65.9954 20.2035 66.0572 20.5334 66.0984C20.5695 66.1036 20.5437 66.2735 20.5025 66.2735H18.9406C18.8994 66.2735 18.8684 66.1036 18.9097 66.0984C19.1726 66.0624 19.3375 65.9594 19.3375 65.6349V63.3379C19.3375 62.998 19.1571 62.9001 18.9097 62.8332C18.8684 62.8229 18.8942 62.6529 18.9406 62.658C19.1416 62.6838 19.3685 62.6889 19.5334 62.6889C19.9149 62.6889 20.2344 62.658 20.4973 62.658C21.2963 62.658 21.9561 62.9516 21.9561 63.7602ZM20.3685 62.9259C20.0437 62.9259 19.9561 63.0392 19.9561 63.3379V64.6409C20.8324 64.7645 21.2912 64.5533 21.2912 63.8787C21.2912 63.2658 20.8994 62.9259 20.3685 62.9259ZM22.3943 66.2838C22.3427 66.289 22.3221 66.1087 22.3634 66.0984C22.6623 66.0212 22.8943 65.9748 22.8943 65.5937V63.307C22.8943 62.9774 22.6829 62.8898 22.4613 62.8332C22.4201 62.8229 22.4458 62.6529 22.4871 62.658C22.8634 62.6992 23.5129 62.6889 23.8273 62.6889C24.2964 62.6889 24.6366 62.6683 25.0593 62.658C25.183 62.658 25.183 62.7404 25.1572 62.8589L25.0335 63.3482C25.018 63.4203 24.8892 63.4203 24.8686 63.3482C24.7912 63.0958 24.6366 62.9516 23.9923 62.9516C23.6314 62.9516 23.5129 63.0443 23.5129 63.3121V64.1516C23.5129 64.2855 23.5799 64.3113 23.683 64.3113H23.7964C24.2139 64.3113 24.5747 64.2701 24.7861 64.0795C24.8376 64.0332 24.951 64.0435 24.9046 64.1465L24.6108 64.7954C24.5696 64.8881 24.4923 64.8778 24.4356 64.8006C24.317 64.6358 24.0541 64.5688 23.7551 64.5688H23.683C23.5799 64.5688 23.5129 64.5946 23.5129 64.7285V65.5937C23.5129 65.8873 23.6366 65.9954 24.0644 65.9954C24.8428 65.9954 25.1521 65.6401 25.2758 65.4444C25.3119 65.3877 25.451 65.4134 25.451 65.501C25.451 65.7637 25.2294 66.2838 24.9046 66.2838C24.616 66.2684 24.3325 66.2529 23.8995 66.2529C23.4252 66.2529 22.8634 66.2375 22.3943 66.2838ZM29.6522 66.1448C29.6934 66.1448 29.6831 66.2838 29.6522 66.2941C29.3274 66.4023 28.879 66.3869 28.5697 65.9903L27.7758 64.9705C27.5542 64.6821 27.2913 64.6409 26.9305 64.6358V65.6349C26.9305 65.9954 27.1779 66.0572 27.5078 66.0984C27.5439 66.1036 27.5181 66.2735 27.4769 66.2735H25.915C25.8737 66.2735 25.8428 66.1036 25.884 66.0984C26.1469 66.0624 26.3119 65.9594 26.3119 65.6349V63.3379C26.3119 62.998 26.1315 62.9001 25.884 62.8332C25.8428 62.8229 25.8686 62.6529 25.915 62.658C26.116 62.6838 26.3428 62.6889 26.5078 62.6889C26.8892 62.6889 27.2449 62.658 27.4923 62.658C28.2707 62.658 28.7913 62.9774 28.7913 63.6108C28.7913 64.2083 28.3068 64.5018 27.8738 64.5276V64.5533C28.08 64.5533 28.2295 64.6409 28.4563 64.9242L29.2243 65.8873C29.3841 66.0881 29.5388 66.1448 29.6522 66.1448ZM27.0799 64.3988C27.848 64.3988 28.1418 64.2649 28.1418 63.7499C28.1418 63.1988 27.7913 62.9259 27.3325 62.9259C27.0284 62.9259 26.9305 63.0495 26.9305 63.3379V64.3988H27.0799ZM30.7295 66.2735C30.6831 66.2735 30.6522 66.1087 30.6934 66.1036C31.0491 66.0572 31.2862 65.9851 31.2862 65.707V63.1679C31.2862 63.0392 31.2398 62.998 31.1161 62.998H30.9769C30.4872 62.998 30.214 63.1113 30.1109 63.3327C30.0645 63.4357 29.8893 63.4203 29.9099 63.3327C29.9563 63.1473 29.9975 62.9877 30.0285 62.7147C30.0388 62.6168 30.0955 62.622 30.1883 62.6323C30.4254 62.658 30.6419 62.6683 31.6213 62.6683C32.6007 62.6683 32.946 62.658 33.1935 62.6323C33.2863 62.622 33.3739 62.6168 33.343 62.7147C33.2656 62.9568 33.2141 63.1473 33.1832 63.3327C33.1677 63.4203 33.0285 63.4254 33.0079 63.3327C32.9564 63.1164 32.7295 62.998 32.2862 62.998H32.1264C32.0027 62.998 31.9254 63.0392 31.9254 63.1679V65.707C31.9254 65.9851 32.1625 66.0572 32.5182 66.1036C32.5594 66.1087 32.5285 66.2735 32.4821 66.2735H30.7295ZM37.209 62.6683C37.2709 62.6683 37.2863 62.8332 37.2245 62.8435C37.0234 62.8744 36.8482 63.0186 36.6111 63.3894L35.7863 64.677V65.6349C35.7863 65.9954 35.9925 66.0572 36.3121 66.0984C36.3482 66.1036 36.3224 66.2735 36.2812 66.2735H34.6677C34.6265 66.2735 34.6007 66.1036 34.6368 66.0984C34.977 66.0521 35.1677 65.9851 35.1677 65.6349V64.6976L34.3017 63.3945C34.0646 63.0392 33.9203 62.8795 33.6986 62.8435C33.6316 62.8332 33.6471 62.6683 33.7141 62.6683H35.075C35.142 62.6683 35.1523 62.8332 35.0904 62.8435C34.8636 62.8795 34.776 63.0546 34.9976 63.3894L35.6523 64.3628L36.2812 63.3894C36.4977 63.0546 36.3688 62.8847 36.0956 62.8435C36.0234 62.8332 36.044 62.6683 36.1059 62.6683H37.209ZM43.2246 66.0984C43.2658 66.1036 43.2349 66.2735 43.1988 66.2735H41.8534C41.8174 66.2735 41.7916 66.1036 41.8225 66.0984C42.039 66.0624 42.1988 65.9594 42.1833 65.6349L42.0854 63.9044L41.2503 65.604C41.1421 65.8255 41.0596 66.0521 41.0441 66.1345C41.0338 66.1963 40.9256 66.2272 40.8431 66.2272C40.7658 66.2272 40.7142 66.1963 40.6833 66.1345L39.4926 63.8787L39.4152 65.6349C39.3998 65.9954 39.6111 66.0778 39.7761 66.0984C39.8173 66.1036 39.7864 66.2735 39.7503 66.2735H38.6833C38.642 66.2735 38.6111 66.1036 38.6523 66.0984C38.874 66.0727 39.0596 65.9954 39.0802 65.6349L39.2451 62.6786C39.2503 62.5911 39.4462 62.5859 39.4977 62.6786L40.9926 65.4701L42.3792 62.6786C42.4256 62.5859 42.6318 62.5911 42.637 62.6786L42.8019 65.6349C42.8225 65.9954 43.0081 66.0727 43.2246 66.0984ZM47.4309 66.0984C47.503 66.1087 47.4824 66.2735 47.4206 66.2735H46.0597C45.9927 66.2735 45.9875 66.1087 46.0442 66.0984C46.235 66.0624 46.4412 65.9954 46.2504 65.5525L46.1937 65.4237C46.1422 65.3001 46.0546 65.2898 45.8999 65.2898H44.8483C44.6937 65.2898 44.6061 65.3001 44.5545 65.4237L44.503 65.5525C44.3226 65.9954 44.5184 66.0624 44.7659 66.0984C44.8329 66.1087 44.8174 66.2735 44.7504 66.2735H43.637C43.5751 66.2735 43.5597 66.1087 43.6215 66.0984C43.8329 66.0624 43.9566 65.9903 44.1473 65.5525L45.0185 63.5542C45.2195 63.101 45.2813 62.8898 45.2813 62.6941C45.2813 62.6632 45.6422 62.5808 45.6576 62.6168L46.9154 65.5474C47.101 65.9851 47.2247 66.0675 47.4309 66.0984ZM45.8638 65.0014C45.936 65.0014 46.0133 64.9911 45.9824 64.919L45.3793 63.4769L44.771 64.919C44.7401 64.9911 44.8174 65.0014 44.8896 65.0014H45.8638ZM51.2299 66.3251C51.1423 66.3251 51.0959 66.289 51.0392 66.2272L48.5855 63.6623V65.6195C48.5855 65.9697 48.7917 66.0263 49.0855 66.0984C49.1268 66.1087 49.1062 66.2735 49.0546 66.2735H47.8329C47.7917 66.2735 47.7608 66.1139 47.8072 66.0984C48.0237 66.0263 48.2299 65.9851 48.2299 65.6195V63.6211C48.2299 63.2555 48.1732 63.0804 48.0391 62.9001C47.9927 62.8383 47.9464 62.7971 47.9464 62.7816C47.9464 62.7353 47.9773 62.6683 48.0494 62.6683H48.4309C48.4824 62.6683 48.5185 62.6735 48.5546 62.7147L50.9567 65.2538V63.3173C50.9567 62.9516 50.7248 62.9104 50.4567 62.8435C50.4155 62.8332 50.4361 62.6683 50.4876 62.6683H51.7093C51.7505 62.6683 51.7763 62.8332 51.7351 62.8435C51.5083 62.9104 51.3124 62.9516 51.3124 63.3173V65.3207C51.3124 65.6607 51.3227 66.0366 51.3743 66.2272C51.3949 66.3044 51.3124 66.3251 51.2299 66.3251ZM55.9414 66.0984C56.0135 66.1087 55.9929 66.2735 55.931 66.2735H54.5702C54.5032 66.2735 54.498 66.1087 54.5547 66.0984C54.7455 66.0624 54.9516 65.9954 54.7609 65.5525L54.7042 65.4237C54.6527 65.3001 54.565 65.2898 54.4104 65.2898H53.3588C53.2042 65.2898 53.1166 65.3001 53.065 65.4237L53.0135 65.5525C52.833 65.9954 53.0289 66.0624 53.2764 66.0984C53.3434 66.1087 53.3279 66.2735 53.2609 66.2735H52.1475C52.0856 66.2735 52.0701 66.1087 52.132 66.0984C52.3433 66.0624 52.4671 65.9903 52.6578 65.5525L53.5289 63.5542C53.73 63.101 53.7918 62.8898 53.7918 62.6941C53.7918 62.6632 54.1527 62.5808 54.1681 62.6168L55.4259 65.5474C55.6115 65.9851 55.7352 66.0675 55.9414 66.0984ZM54.3743 65.0014C54.4465 65.0014 54.5238 64.9911 54.4929 64.919L53.8898 63.4769L53.2815 64.919C53.2506 64.9911 53.3279 65.0014 53.4001 65.0014H54.3743ZM58.6218 66.356C57.3898 66.356 56.4001 65.7482 56.4001 64.5379C56.4001 63.5542 57.0754 62.5859 58.5084 62.5859C59.1373 62.5859 59.627 62.7713 59.5651 62.9465L59.4878 63.1628C59.3074 63.6726 59.1012 63.0031 58.1373 63.0031C57.3383 63.0031 56.9723 63.4615 56.9723 64.2392C56.9723 65.398 57.761 66.0263 58.4723 66.0263C58.8435 66.0263 58.9827 65.8461 58.9827 65.5525V65.4598C58.9827 65.0684 58.8074 64.9396 58.395 64.8778C58.328 64.8675 58.3899 64.6821 58.5033 64.6821H59.828C59.9724 64.6821 59.9208 64.8624 59.8641 64.8778C59.6734 64.9293 59.5445 65.0375 59.5445 65.3671V65.5474C59.5445 65.671 59.5548 65.7791 59.6528 65.9388C59.3435 66.1087 58.7455 66.356 58.6218 66.356ZM60.359 66.2838C60.3074 66.289 60.2868 66.1087 60.328 66.0984C60.627 66.0212 60.859 65.9748 60.859 65.5937V63.307C60.859 62.9774 60.6476 62.8898 60.426 62.8332C60.3847 62.8229 60.4105 62.6529 60.4518 62.658C60.8281 62.6992 61.4776 62.6889 61.792 62.6889C62.2611 62.6889 62.6013 62.6683 63.024 62.658C63.1477 62.658 63.1477 62.7404 63.1219 62.8589L62.9982 63.3482C62.9827 63.4203 62.8539 63.4203 62.8332 63.3482C62.7559 63.0958 62.6013 62.9516 61.9569 62.9516C61.5961 62.9516 61.4776 63.0443 61.4776 63.3121V64.1516C61.4776 64.2855 61.5446 64.3113 61.6477 64.3113H61.7611C62.1786 64.3113 62.5394 64.2701 62.7508 64.0795C62.8023 64.0332 62.9157 64.0435 62.8693 64.1465L62.5755 64.7954C62.5343 64.8881 62.457 64.8778 62.4002 64.8006C62.2817 64.6358 62.0188 64.5688 61.7198 64.5688H61.6477C61.5446 64.5688 61.4776 64.5946 61.4776 64.7285V65.5937C61.4776 65.8873 61.6013 65.9954 62.0291 65.9954C62.8075 65.9954 63.1168 65.6401 63.2405 65.4444C63.2766 65.3877 63.4157 65.4134 63.4157 65.501C63.4157 65.7637 63.1941 66.2838 62.8693 66.2838C62.5807 66.2684 62.2972 66.2529 61.8642 66.2529C61.3899 66.2529 60.8281 66.2375 60.359 66.2838ZM68.421 66.0984C68.4622 66.1036 68.4313 66.2735 68.3952 66.2735H67.0498C67.0137 66.2735 66.988 66.1036 67.0189 66.0984C67.2354 66.0624 67.3952 65.9594 67.3797 65.6349L67.2818 63.9044L66.4467 65.604C66.3385 65.8255 66.256 66.0521 66.2405 66.1345C66.2302 66.1963 66.122 66.2272 66.0395 66.2272C65.9622 66.2272 65.9106 66.1963 65.8797 66.1345L64.689 63.8787L64.6116 65.6349C64.5962 65.9954 64.8075 66.0778 64.9725 66.0984C65.0137 66.1036 64.9828 66.2735 64.9467 66.2735H63.8797C63.8384 66.2735 63.8075 66.1036 63.8487 66.0984C64.0704 66.0727 64.256 65.9954 64.2766 65.6349L64.4415 62.6786C64.4467 62.5911 64.6426 62.5859 64.6941 62.6786L66.189 65.4701L67.5756 62.6786C67.622 62.5859 67.8282 62.5911 67.8333 62.6786L67.9983 65.6349C68.0189 65.9954 68.2045 66.0727 68.421 66.0984ZM68.8282 66.2838C68.7767 66.289 68.7561 66.1087 68.7973 66.0984C69.0963 66.0212 69.3282 65.9748 69.3282 65.5937V63.307C69.3282 62.9774 69.1169 62.8898 68.8952 62.8332C68.854 62.8229 68.8798 62.6529 68.921 62.658C69.2973 62.6992 69.9468 62.6889 70.2612 62.6889C70.7303 62.6889 71.0705 62.6683 71.4932 62.658C71.6169 62.658 71.6169 62.7404 71.5912 62.8589L71.4674 63.3482C71.452 63.4203 71.3231 63.4203 71.3025 63.3482C71.2252 63.0958 71.0705 62.9516 70.4262 62.9516C70.0654 62.9516 69.9468 63.0443 69.9468 63.3121V64.1516C69.9468 64.2855 70.0138 64.3113 70.1169 64.3113H70.2303C70.6478 64.3113 71.0087 64.2701 71.22 64.0795C71.2716 64.0332 71.385 64.0435 71.3386 64.1465L71.0448 64.7954C71.0035 64.8881 70.9262 64.8778 70.8695 64.8006C70.7509 64.6358 70.488 64.5688 70.1891 64.5688H70.1169C70.0138 64.5688 69.9468 64.5946 69.9468 64.7285V65.5937C69.9468 65.8873 70.0705 65.9954 70.4984 65.9954C71.2767 65.9954 71.586 65.6401 71.7097 65.4444C71.7458 65.3877 71.885 65.4134 71.885 65.501C71.885 65.7637 71.6633 66.2838 71.3386 66.2838C71.0499 66.2684 70.7664 66.2529 70.3334 66.2529C69.8592 66.2529 69.2973 66.2375 68.8282 66.2838ZM75.715 66.3251C75.6273 66.3251 75.5809 66.289 75.5242 66.2272L73.0706 63.6623V65.6195C73.0706 65.9697 73.2768 66.0263 73.5706 66.0984C73.6118 66.1087 73.5912 66.2735 73.5396 66.2735H72.318C72.2767 66.2735 72.2458 66.1139 72.2922 66.0984C72.5087 66.0263 72.7149 65.9851 72.7149 65.6195V63.6211C72.7149 63.2555 72.6582 63.0804 72.5242 62.9001C72.4778 62.8383 72.4314 62.7971 72.4314 62.7816C72.4314 62.7353 72.4623 62.6683 72.5345 62.6683H72.9159C72.9675 62.6683 73.0036 62.6735 73.0396 62.7147L75.4417 65.2538V63.3173C75.4417 62.9516 75.2098 62.9104 74.9417 62.8435C74.9005 62.8332 74.9211 62.6683 74.9727 62.6683H76.1943C76.2356 62.6683 76.2614 62.8332 76.2201 62.8435C75.9933 62.9104 75.7974 62.9516 75.7974 63.3173V65.3207C75.7974 65.6607 75.8077 66.0366 75.8593 66.2272C75.8799 66.3044 75.7974 66.3251 75.715 66.3251ZM77.4212 66.2735C77.3748 66.2735 77.3439 66.1087 77.3851 66.1036C77.7408 66.0572 77.9779 65.9851 77.9779 65.707V63.1679C77.9779 63.0392 77.9315 62.998 77.8078 62.998H77.6686C77.1789 62.998 76.9057 63.1113 76.8026 63.3327C76.7562 63.4357 76.5809 63.4203 76.6016 63.3327C76.648 63.1473 76.6892 62.9877 76.7201 62.7147C76.7304 62.6168 76.7871 62.622 76.8799 62.6323C77.117 62.658 77.3335 62.6683 78.313 62.6683C79.2924 62.6683 79.6377 62.658 79.8851 62.6323C79.9779 62.622 80.0656 62.6168 80.0346 62.7147C79.9573 62.9568 79.9058 63.1473 79.8748 63.3327C79.8594 63.4203 79.7202 63.4254 79.6996 63.3327C79.648 63.1164 79.4212 62.998 78.9779 62.998H78.8181C78.6944 62.998 78.6171 63.0392 78.6171 63.1679V65.707C78.6171 65.9851 78.8542 66.0572 79.2099 66.1036C79.2511 66.1087 79.2202 66.2735 79.1738 66.2735H77.4212Z" fill="#030303"/>
</svg>
